<svg viewBox="0 0 418.99 84.02" xmlns="http://www.w3.org/2000/svg" xmlns:xlink="http://www.w3.org/1999/xlink"><linearGradient id="a" gradientUnits="userSpaceOnUse" x1="433.86" x2="92.06" y1="-26.41" y2="33.35"><stop offset="0" stop-color="#0b0903"/><stop offset=".12" stop-color="#19150b"/><stop offset=".34" stop-color="#3d3320"/><stop offset=".64" stop-color="#786541"/><stop offset="1" stop-color="#c6a66e"/></linearGradient><linearGradient id="b" gradientUnits="userSpaceOnUse" x1="436" x2="94.2" y1="-14.2" y2="45.56"><stop offset="0" stop-color="#0b0903"/><stop offset=".12" stop-color="#19150b"/><stop offset=".34" stop-color="#3d3320"/><stop offset=".64" stop-color="#786541"/><stop offset="1" stop-color="#c8a86f"/></linearGradient><linearGradient id="c" x1="438.13" x2="96.33" xlink:href="#b" y1="-1.98" y2="57.79"/><linearGradient id="d" x1="443.8" x2="102" xlink:href="#b" y1="30.42" y2="90.18"/><linearGradient id="e" x1="441.33" x2="99.53" xlink:href="#b" y1="16.32" y2="76.08"/><path d="m16.82 84h-16.82l17.86-84h16.82l-10.75 50.43h33.57l10.75-50.43h16.82l-17.86 84h-16.82l3.54-16.77h-33.58z" fill="url(#a)"/><path d="m152.88 0h16.76l-37.46 57.71-5.59 26.29h-16.76l5.59-26.31-12.99-57.69h16.82l8.62 38.43z" fill="url(#b)"/><path d="m186 84h-16.79l17.86-84h33.63a30.09 30.09 0 0 1 8.65 1.2 26.59 26.59 0 0 1 7.28 3.4 25 25 0 0 1 9.49 12.1 28.34 28.34 0 0 1 1.7 8 32.17 32.17 0 0 1 -.7 8.9 38.76 38.76 0 0 1 -5.4 13 46.16 46.16 0 0 1 -9.48 10.69 45.15 45.15 0 0 1 -12.24 7.28 36.71 36.71 0 0 1 -13.6 2.64h-16.8zm14.29-67.2-7.15 33.63h16.86a18.25 18.25 0 0 0 6.78-1.32 22.8 22.8 0 0 0 10.84-9 19.44 19.44 0 0 0 2.71-6.54 15.49 15.49 0 0 0 .07-6.53 12.88 12.88 0 0 0 -2.46-5.36 12.64 12.64 0 0 0 -4.57-3.61 14.44 14.44 0 0 0 -6.23-1.31z" fill="url(#c)"/><path d="m350.32 16.8 3.57-16.8h65.11l-3.57 16.82zm-3.83 18.3h55l-3.57 16.82h-55zm-10.37 48.9 3.57-16.8h65l-3.57 16.8z" fill="url(#d)"/><path d="m267.22 16.8 3.57-16.8h65.1l-3.57 16.82zm-3.83 18.3h55l-3.57 16.82h-55zm-10.39 48.9 3.57-16.8h65l-3.57 16.8z" fill="url(#e)"/></svg>