<svg xmlns="http://www.w3.org/2000/svg" xmlns:xlink="http://www.w3.org/1999/xlink" viewBox="0 0 418.99 84.02"><defs><style>.cls-1{fill:url(#Gradient_bez_nazwy_10);}.cls-2{fill:url(#Gradient_bez_nazwy_5);}.cls-3{fill:url(#Gradient_bez_nazwy_5-2);}.cls-4{fill:url(#Gradient_bez_nazwy_5-3);}.cls-5{fill:url(#Gradient_bez_nazwy_5-4);}</style><linearGradient id="Gradient_bez_nazwy_10" x1="433.86" y1="-26.41" x2="92.06" y2="33.35" gradientUnits="userSpaceOnUse"><stop offset="0" stop-color="#0b0903"/><stop offset="0.12" stop-color="#19150b"/><stop offset="0.34" stop-color="#3d3320"/><stop offset="0.64" stop-color="#786541"/><stop offset="1" stop-color="#c6a66e"/></linearGradient><linearGradient id="Gradient_bez_nazwy_5" x1="436" y1="-14.2" x2="94.2" y2="45.56" gradientUnits="userSpaceOnUse"><stop offset="0" stop-color="#0b0903"/><stop offset="0.12" stop-color="#19150b"/><stop offset="0.34" stop-color="#3d3320"/><stop offset="0.64" stop-color="#786541"/><stop offset="1" stop-color="#c8a86f"/></linearGradient><linearGradient id="Gradient_bez_nazwy_5-2" x1="438.13" y1="-1.98" x2="96.33" y2="57.79" xlink:href="#Gradient_bez_nazwy_5"/><linearGradient id="Gradient_bez_nazwy_5-3" x1="443.8" y1="30.42" x2="102" y2="90.18" xlink:href="#Gradient_bez_nazwy_5"/><linearGradient id="Gradient_bez_nazwy_5-4" x1="441.33" y1="16.32" x2="99.53" y2="76.08" xlink:href="#Gradient_bez_nazwy_5"/></defs><g id="Warstwa_2" data-name="Warstwa 2"><g id="Warstwa_5" data-name="Warstwa 5"><path class="cls-1" d="M16.82,84H0L17.86,0H34.68L23.93,50.43H57.5L68.25,0H85.07L67.21,84H50.39l3.54-16.77H20.35Z"/><path class="cls-2" d="M152.88,0h16.76L132.18,57.71,126.59,84H109.83l5.59-26.31L102.43,0h16.82l8.62,38.43Z"/><path class="cls-3" d="M186,84H169.21L187.07,0H220.7a30.09,30.09,0,0,1,8.65,1.2,26.59,26.59,0,0,1,7.28,3.4,25,25,0,0,1,9.49,12.1,28.34,28.34,0,0,1,1.7,8,32.17,32.17,0,0,1-.7,8.9,38.76,38.76,0,0,1-5.4,13,46.16,46.16,0,0,1-9.48,10.69A45.15,45.15,0,0,1,220,64.57a36.71,36.71,0,0,1-13.6,2.64H189.6Zm14.29-67.2-7.15,33.63H210a18.25,18.25,0,0,0,6.78-1.32,22.8,22.8,0,0,0,10.84-9,19.44,19.44,0,0,0,2.71-6.54,15.49,15.49,0,0,0,.07-6.53,12.88,12.88,0,0,0-2.46-5.36,12.64,12.64,0,0,0-4.57-3.61,14.44,14.44,0,0,0-6.23-1.31Z"/><path class="cls-4" d="M350.32,16.8,353.89,0H419l-3.57,16.82Zm-3.83,18.3h55l-3.57,16.82-55,0ZM336.12,84l3.57-16.8h65L401.12,84Z"/><path class="cls-5" d="M267.22,16.8,270.79,0h65.1l-3.57,16.82Zm-3.83,18.3h55l-3.57,16.82-55,0ZM253,84l3.57-16.8h65L318,84Z"/></g></g></svg>